<svg xmlns="http://www.w3.org/2000/svg" xmlns:xlink="http://www.w3.org/1999/xlink" preserveAspectRatio="xMidYMid" width="85" height="80" viewBox="0 0 85 80">
  <defs>
    <style>

      .cls-2 {
        fill: #f8d336;
      }
    </style>
  </defs>
  <path d="M64.905,50.144 C64.905,50.144 68.893,78.310 68.893,78.310 C68.893,78.310 42.597,66.769 42.597,66.769 C42.597,66.769 16.364,80.010 16.364,80.010 C16.364,80.010 20.209,51.590 20.209,51.590 C20.209,51.590 0.008,31.607 0.008,31.607 C0.008,31.607 28.681,25.584 28.681,25.584 C28.681,25.584 42.429,-0.008 42.429,-0.008 C42.429,-0.008 56.304,24.690 56.304,24.690 C56.304,24.690 85.003,28.856 85.003,28.856 C85.003,28.856 64.905,50.144 64.905,50.144 ZM58.966,31.966 C57.605,30.293 55.392,29.474 52.816,29.627 C52.816,29.627 33.174,29.627 33.174,29.627 C30.597,29.474 28.384,30.293 27.023,31.966 C25.445,33.910 25.281,36.629 26.574,39.434 C28.771,44.201 34.540,45.566 37.302,45.951 C37.302,45.951 38.565,50.944 38.565,50.944 C38.565,50.944 34.435,50.944 34.435,50.944 C34.435,50.944 33.166,60.242 33.166,60.242 C33.166,60.242 52.823,60.242 52.823,60.242 C52.823,60.242 51.554,50.944 51.554,50.944 C51.554,50.944 47.424,50.944 47.424,50.944 C47.424,50.944 48.687,45.951 48.687,45.951 C51.449,45.566 57.218,44.201 59.416,39.434 C60.708,36.629 60.544,33.910 58.966,31.966 ZM49.859,41.316 C49.859,41.316 51.662,34.188 51.662,34.188 C53.456,33.733 55.026,33.946 55.663,34.729 C56.148,35.325 56.102,36.370 55.539,37.594 C54.581,39.671 52.032,40.776 49.859,41.316 ZM30.450,37.594 C29.887,36.370 29.841,35.325 30.326,34.729 C30.963,33.946 32.533,33.733 34.327,34.188 C34.327,34.188 36.131,41.316 36.131,41.316 C33.957,40.776 31.408,39.671 30.450,37.594 Z" id="path-1" class="cls-2" fill-rule="evenodd"/>
</svg>
